<svg width="349" height="245" viewBox="0 0 349 245" fill="none" xmlns="http://www.w3.org/2000/svg">
<path d="M301.257 193.684C271.513 224.666 231.648 245.636 194.134 244.225C184.178 243.851 173.158 241.855 161.565 238.493L160.534 238.192C116.826 225.25 65.2927 193.127 32.6401 155.601L32.1621 155.049C11.9501 131.656 -0.895191 106.194 0.0596077 81.9803C1.52949 44.7034 39.8156 37.7518 85.7093 36.002L87.3422 35.9417C121.697 34.7259 160.092 36.2388 190.409 30.0587L191.152 29.9053C194.865 29.1297 198.458 28.236 201.9 27.2046L202.35 27.0688C207 25.6556 211.375 23.991 215.426 22.0236C240.744 9.72608 261.648 3.18175 278.777 1.33075L279.204 1.28595C283.6 0.830077 287.746 0.682853 291.651 0.829713C317.368 1.79688 332.706 15.4535 340.754 36.6407L340.942 37.1427C346.849 53.0064 348.733 73.0259 347.864 95.0605C346.497 129.723 328.267 165.258 301.957 192.95L301.257 193.684Z" fill="#F4EEE8"/>
</svg>
