<svg width="329" height="257" viewBox="0 0 329 257" fill="none" xmlns="http://www.w3.org/2000/svg">
<path fill-rule="evenodd" clip-rule="evenodd" d="M95.5857 257C93.3609 257 91.0729 256.902 88.7235 256.699C74.9412 255.506 62.7967 250.427 52.2786 242.626C15.2372 215.154 -1.68826 153.893 0.593196 109.397C1.01607 101.139 2.1016 93.4569 3.84219 86.6782C11.1057 58.3936 30.3777 43.4185 55.8372 43.4185C60.7833 43.4185 65.9626 43.9833 71.3316 45.126C74.1417 45.7245 77.0046 46.4802 79.9128 47.3957C92.1376 51.246 108.144 61.4215 122.207 61.4207C123.978 61.4207 125.72 61.2593 127.418 60.9037C141.505 57.9523 145.388 44.4912 151.888 33.8227C152.89 32.1778 153.919 30.5988 154.972 29.0873C169.365 8.40956 188.332 0 208.398 0C256.083 0 309.933 47.548 322.978 90.9739C322.969 90.9361 322.96 90.8998 322.941 90.8628C321.374 85.5849 319.797 80.3086 319.797 80.3086C319.797 80.3086 320.666 83.2073 323.026 91.1501C325.272 98.6598 326.093 101.418 326.093 101.417C326.093 101.417 324.611 96.465 323.092 91.3584C325.055 98.0037 326.443 105.042 327.245 112.28C330.228 139.268 325.027 169.015 311.047 191.372C310.5 192.254 309.933 193.127 309.358 193.985C299.135 209.15 283.192 221.585 264.408 225.267C259.67 226.196 255.139 226.617 250.758 226.617C235.984 226.617 222.869 221.831 208.901 215.593C207.465 214.951 206.018 214.294 204.561 213.625C200.235 211.641 196.173 210.769 192.271 210.769C180.124 210.769 169.556 219.227 157.644 228.906C155.63 230.541 153.577 232.213 151.473 233.884C136.917 245.442 119.848 257 95.5857 257Z" fill="#F4EEE8"/>
</svg>
